G75*
%MOIN*%
%OFA0B0*%
%FSLAX25Y25*%
%IPPOS*%
%LPD*%
%AMOC8*
5,1,8,0,0,1.08239X$1,22.5*
%
%ADD10C,0.06800*%
%ADD11C,0.08200*%
%ADD12R,0.08800X0.08800*%
%ADD13C,0.08800*%
%ADD14R,0.10300X0.10300*%
%ADD15C,0.10300*%
%ADD16C,0.12611*%
%ADD17C,0.04000*%
%ADD18C,0.04123*%
D10*
X0216000Y0023260D02*
X0216000Y0029260D01*
X0226000Y0029260D02*
X0226000Y0023260D01*
X0236000Y0023260D02*
X0236000Y0029260D01*
X0236000Y0068260D02*
X0236000Y0074260D01*
X0226000Y0074260D02*
X0226000Y0068260D01*
X0216000Y0068260D02*
X0216000Y0074260D01*
X0216000Y0108260D02*
X0216000Y0114260D01*
X0226000Y0114260D02*
X0226000Y0108260D01*
X0236000Y0108260D02*
X0236000Y0114260D01*
D11*
X0050000Y0021260D03*
X0050000Y0031260D03*
X0050000Y0041260D03*
X0050000Y0051260D03*
X0050000Y0061260D03*
X0050000Y0071260D03*
X0050000Y0081260D03*
X0050000Y0091260D03*
X0050000Y0101260D03*
X0050000Y0111260D03*
X0050000Y0121260D03*
X0050000Y0131260D03*
X0110000Y0131260D03*
X0110000Y0121260D03*
X0110000Y0111260D03*
X0110000Y0101260D03*
X0110000Y0091260D03*
X0110000Y0081260D03*
X0110000Y0071260D03*
X0110000Y0061260D03*
X0110000Y0051260D03*
X0110000Y0041260D03*
X0110000Y0031260D03*
X0110000Y0021260D03*
X0182000Y0022260D03*
X0192000Y0022260D03*
X0192000Y0039260D03*
X0182000Y0039260D03*
X0182000Y0056260D03*
X0192000Y0056260D03*
X0176000Y0066260D03*
X0176000Y0081260D03*
X0176000Y0096260D03*
X0136000Y0096260D03*
X0136000Y0081260D03*
X0136000Y0066260D03*
D12*
X0016000Y0051260D03*
X0016000Y0126260D03*
X0276000Y0111260D03*
X0276000Y0071260D03*
D13*
X0276000Y0051575D03*
X0276000Y0091575D03*
X0016000Y0106575D03*
X0016000Y0031575D03*
D14*
X0176000Y0126260D03*
D15*
X0156315Y0126260D03*
X0136630Y0126260D03*
D16*
X0017000Y0079000D03*
X0278559Y0018000D03*
X0280000Y0142260D03*
D17*
X0170000Y0054260D03*
X0170000Y0043760D03*
X0170000Y0033760D03*
D18*
X0140000Y0033760D03*
X0140000Y0043760D03*
X0140000Y0054260D03*
M02*
