G75*
%MOIN*%
%OFA0B0*%
%FSLAX25Y25*%
%IPPOS*%
%LPD*%
%AMOC8*
5,1,8,0,0,1.08239X$1,22.5*
%
%ADD10C,0.06000*%
%ADD11C,0.07400*%
%ADD12R,0.08000X0.08000*%
%ADD13C,0.08000*%
%ADD14R,0.09500X0.09500*%
%ADD15C,0.09500*%
%ADD16C,0.10000*%
%ADD17C,0.08600*%
%ADD18C,0.06600*%
%ADD19C,0.04362*%
%ADD20C,0.01600*%
D10*
X0216000Y0023260D02*
X0216000Y0029260D01*
X0226000Y0029260D02*
X0226000Y0023260D01*
X0236000Y0023260D02*
X0236000Y0029260D01*
X0236000Y0068260D02*
X0236000Y0074260D01*
X0226000Y0074260D02*
X0226000Y0068260D01*
X0216000Y0068260D02*
X0216000Y0074260D01*
X0216000Y0108260D02*
X0216000Y0114260D01*
X0226000Y0114260D02*
X0226000Y0108260D01*
X0236000Y0108260D02*
X0236000Y0114260D01*
D11*
X0176000Y0096260D03*
X0176000Y0081260D03*
X0176000Y0066260D03*
X0182000Y0056260D03*
X0192000Y0056260D03*
X0170000Y0054260D03*
X0170000Y0043760D03*
X0182000Y0039260D03*
X0192000Y0039260D03*
X0170000Y0033760D03*
X0182000Y0022260D03*
X0192000Y0022260D03*
X0140000Y0033760D03*
X0140000Y0043760D03*
X0140000Y0054260D03*
X0136000Y0066260D03*
X0110000Y0071260D03*
X0110000Y0081260D03*
X0110000Y0091260D03*
X0110000Y0101260D03*
X0110000Y0111260D03*
X0110000Y0121260D03*
X0110000Y0131260D03*
X0136000Y0096260D03*
X0136000Y0081260D03*
X0110000Y0061260D03*
X0110000Y0051260D03*
X0110000Y0041260D03*
X0110000Y0031260D03*
X0110000Y0021260D03*
X0050000Y0021260D03*
X0050000Y0031260D03*
X0050000Y0041260D03*
X0050000Y0051260D03*
X0050000Y0061260D03*
X0050000Y0071260D03*
X0050000Y0081260D03*
X0050000Y0091260D03*
X0050000Y0101260D03*
X0050000Y0111260D03*
X0050000Y0121260D03*
X0050000Y0131260D03*
D12*
X0016000Y0126260D03*
X0016000Y0051260D03*
X0276000Y0071260D03*
X0276000Y0111260D03*
D13*
X0276000Y0091575D03*
X0276000Y0051575D03*
X0016000Y0031575D03*
X0016000Y0106575D03*
D14*
X0176000Y0126260D03*
D15*
X0156315Y0126260D03*
X0136630Y0126260D03*
D16*
X0063500Y0010260D02*
X0038000Y0010260D01*
X0038000Y0106260D01*
X0016000Y0106260D01*
X0016000Y0106575D01*
X0016000Y0126260D02*
X0036000Y0146260D01*
X0254000Y0146260D01*
X0254000Y0111260D01*
X0276000Y0111260D01*
X0236000Y0010260D02*
X0191000Y0010260D01*
X0063500Y0010260D01*
D17*
X0236000Y0010260D02*
X0254000Y0010260D01*
X0254000Y0039260D01*
X0281000Y0039260D01*
X0287000Y0045260D01*
X0287000Y0081260D01*
X0287000Y0101260D01*
D18*
X0240000Y0101260D01*
X0236000Y0105260D01*
X0236000Y0111260D01*
X0238000Y0081260D02*
X0287000Y0081260D01*
X0238000Y0081260D02*
X0236000Y0079260D01*
X0236000Y0071260D01*
X0236000Y0026260D02*
X0236000Y0010260D01*
D19*
X0063500Y0086260D03*
D20*
X0063500Y0010260D01*
X0191000Y0010260D02*
X0192000Y0011260D01*
X0192000Y0022260D01*
M02*
