%
M48
M72
T01C0.0236
T02C0.0320
T03C0.0354
T04C0.0400
T05C0.0512
T06C0.1181
%
T01
X6350Y8626
T02
X18200Y5626
X19200Y5626
X19200Y3926
X18200Y3926
X18200Y2226
X19200Y2226
T03
X17000Y3376
X17000Y4376
X17000Y5426
X17600Y6626
X17600Y8126
X17600Y9626
X13600Y9626
X13600Y8126
X13600Y6626
X14000Y5426
X14000Y4376
X14000Y3376
T04
X5000Y2126
X5000Y3126
X5000Y4126
X5000Y5126
X5000Y6126
X5000Y7126
X5000Y8126
X5000Y9126
X5000Y10126
X5000Y11126
X5000Y12126
X5000Y13126
X11000Y13126
X11000Y12126
X11000Y11126
X11000Y10126
X11000Y9126
X11000Y8126
X11000Y7126
X11000Y6126
X11000Y5126
X11000Y4126
X11000Y3126
X11000Y2126
X21600Y2626
X22600Y2626
X23600Y2626
X23600Y7126
X22600Y7126
X21600Y7126
X21600Y11126
X22600Y11126
X23600Y11126
T05
X27600Y11126
X27600Y9157
X27600Y7126
X27600Y5157
X17600Y12626
X15631Y12626
X13663Y12626
X1600Y12626
X1600Y10657
X1600Y5126
X1600Y3157
T06
X1700Y7900
X27856Y1800
X28000Y14226
M30
